<?xml version="1.0" encoding="UTF-8" standalone="no"?>
<svg
   version="1.1"
   width="600"
   height="600"
   id="svg1231"
   sodipodi:docname="bricswise-icon.svg"
   xml:space="preserve"
   inkscape:export-filename="bricswise-logo.png"
   inkscape:export-xdpi="300"
   inkscape:export-ydpi="300"
   inkscape:version="1.4.3 (0d15f75, 2025-12-25)"
   xmlns:inkscape="http://www.inkscape.org/namespaces/inkscape"
   xmlns:sodipodi="http://sodipodi.sourceforge.net/DTD/sodipodi-0.dtd"
   xmlns="http://www.w3.org/2000/svg"
   xmlns:svg="http://www.w3.org/2000/svg"><defs
     id="defs1231"><rect
       x="226.3158"
       y="336.8421"
       width="261.65414"
       height="260.90225"
       id="rect3" /><rect
       x="226.3158"
       y="336.8421"
       width="2086.1206"
       height="262.27771"
       id="rect3-4" /></defs><sodipodi:namedview
     id="namedview1231"
     pagecolor="#505050"
     bordercolor="#eeeeee"
     borderopacity="1"
     inkscape:showpageshadow="0"
     inkscape:pageopacity="0"
     inkscape:pagecheckerboard="0"
     inkscape:deskcolor="#505050"
     inkscape:zoom="0.34"
     inkscape:cx="1545.5882"
     inkscape:cy="80.882353"
     inkscape:window-width="1920"
     inkscape:window-height="1009"
     inkscape:window-x="-8"
     inkscape:window-y="-8"
     inkscape:window-maximized="1"
     inkscape:current-layer="svg1231" /><g
     id="g1"
     transform="matrix(0.42030656,0,0,0.42030656,541.09126,324.83224)"
     style="display:inline;stroke-width:2.37921"><path
       style="display:inline;fill:#e9af0d;stroke-width:2.37921"
       d="m -653.10198,607.78893 c -62.21551,-8.50381 -132.4122,-28.31062 -185.26173,-52.27374 -54.27123,-24.60775 -130.7466,-71.84161 -150.64227,-93.04193 l -14.89062,-15.86711 59.10967,-54.02406 59.10972,-54.02406 73.07305,8.06936 c 90.16126,9.95639 208.74824,4.70957 318.73225,-14.10214 44.42156,-7.59789 82.31578,-12.26503 84.20938,-10.37144 1.89359,1.8936 9.04399,36.27117 15.88977,76.39461 6.84578,40.12344 18.24663,95.5914 25.33521,123.26214 7.39221,28.85596 10.43695,52.76181 7.13988,56.05888 -11.83065,11.83065 -110.75315,30.39033 -177.15669,33.23786 -37.83372,1.62238 -89.42514,0.12912 -114.64762,-3.31837 z m -579.77292,-767.65079 c 0.044,-39.08551 49.0137,-187.98973 65.0918,-197.92652 9.0749,-5.60861 111.3001,81.33156 111.5747,94.89169 0.111,5.48624 -10.7144,15.80452 -24.0566,22.92953 -13.3422,7.125 -50.3525,31.38006 -82.2452,53.90013 -31.8926,22.52006 -60.7753,40.94557 -64.1839,40.94557 -3.4085,0 -6.1898,-6.63318 -6.1808,-14.7404 z"
       id="path6"
       sodipodi:nodetypes="ssscccsssssssssssssss" /><path
       style="display:inline;fill:#94c021;stroke-width:2.37921"
       d="m -1001.2124,248.87964 c -61.5361,-21.42129 -128.4896,-56.63582 -177.3856,-93.29685 -25.3626,-19.01629 -35.8231,-31.91825 -40.6554,-50.1444 -11.4791,-43.296084 -21.0085,-115.3779497 -17.2389,-130.397259 6.7674,-26.963549 141.2841,-129.760221 225.3575,-172.216521 l 28.49339,-14.38893 69.77597,46.10264 c 38.37679,25.35645 100.73083,63.38475 138.56455,84.507327 52.40661,29.258633 68.28366,41.215114 66.66842,50.205803 -2.94575,16.396627 -66.12623,117.374219 -111.74989,178.60318 -57.56743,77.25803 -98.20427,119.76809 -114.39448,119.66769 -7.77332,-0.0482 -38.11933,-8.43741 -67.43556,-18.64268 z m 660.6974,-84.45253 c 1.86298,-63.46343 1.98062,-63.87093 18.25329,-63.22865 25.55024,1.00846 153.32475,29.0402 159.33609,34.95585 2.95938,2.91228 -2.93678,11.85221 -13.10259,19.86652 -26.52177,20.90867 -134.33015,72.28138 -151.68633,72.28138 -14.32458,0 -14.63068,-1.52744 -12.80046,-63.8751 z"
       id="path5" /><path
       style="display:inline;fill:#00ffff;stroke-width:2.37921"
       d="m -821.79777,289.67196 c -6.30561,-1.85287 -11.46476,-5.03772 -11.46476,-7.07745 0,-2.03973 15.63811,-23.19716 34.75136,-47.0165 47.55988,-59.27016 88.09378,-117.78857 128.69693,-185.798516 18.82283,-31.528095 36.65528,-57.323809 39.62766,-57.323809 2.97239,0 28.51321,9.8609152 56.75739,21.913145 28.24418,12.05223 71.98963,28.659091 97.21211,36.904137 25.22248,8.245046 49.54415,17.907638 54.04816,21.472427 5.82136,4.607429 8.18912,31.861876 8.18912,94.262166 0,102.05555 6.76809,93.2256 -85.16681,111.11252 -54.35573,10.57549 -296.47347,19.24403 -322.65116,11.55188 z m 339.0294,-299.728801 c -78.77157,-28.690996 -121.19892,-47.919017 -121.19892,-54.927197 0,-3.171381 10.8507,-30.606908 24.11267,-60.967842 13.26196,-30.36092 36.49834,-90.53752 51.63639,-133.72576 22.91896,-65.38686 30.11931,-79.25216 43.03809,-82.87595 25.87249,-7.25738 162.91843,-6.41145 162.91843,1.00564 0,3.66496 -11.42443,41.253 -25.38762,83.52897 -13.9632,42.27598 -31.86673,110.76835 -39.78562,152.20528 -19.47777,101.9206302 -22.43586,113.3330436 -29.91849,115.4267689 -3.54931,0.9931391 -32.98604,-7.8583206 -65.41493,-19.6699099 z m -268.603,-122.268629 c -86.39936,-48.40507 -161.28972,-98.88927 -158.61222,-106.92179 5.61565,-16.84694 254.39376,-89.00312 307.65413,-89.23272 22.88137,-0.0986 22.74969,5.12082 -1.89048,74.93167 -33.24787,94.1983 -62.98759,154.287831 -76.35231,154.270939 -6.51062,-0.0082 -38.37022,-14.879869 -70.79912,-33.048099 z"
       id="path4" /><path
       style="display:inline;fill:#ea6214;stroke-width:2.37921"
       d="m -285.21224,537.85078 c -15.33204,-24.84972 -49.59864,-227.73361 -39.99944,-236.82658 3.42409,-3.24352 28.33623,-15.18149 55.36032,-26.52883 55.24977,-23.19924 124.32911,-62.54664 174.460453,-99.37219 l 33.607666,-24.68757 59.969812,3.88528 c 32.983396,2.1369 61.638103,6.58462 63.677125,9.88383 2.039023,3.29921 -11.223691,36.02229 -29.472697,72.71796 -57.789557,116.20504 -146.427489,211.98178 -256.246339,276.88417 -50.93131,30.10015 -56.3179,32.21099 -61.3569,24.04393 z M -1093.7047,351.13895 c -32.2097,-42.30117 -60.5712,-87.5306 -60.5712,-96.59569 0,-3.72668 16.9515,1.73006 37.67,12.12609 20.7184,10.39602 56.8324,25.6559 80.2533,33.91082 23.4209,8.25493 44.96108,17.05701 47.86713,19.56019 6.25877,5.39111 -58.62043,65.39287 -70.70853,65.39287 -4.5769,0 -20.1067,-15.47743 -34.5107,-34.39428 z m 59.1581,-685.52201 c -96.851,-84.17984 -95.5675,-82.59186 -84.3266,-104.32925 14.8895,-28.79328 106.1285,-123.26982 154.58482,-160.07031 55.96065,-42.49966 159.79885,-92.43543 229.29524,-110.26801 36.49691,-9.365 84.46961,-15.42363 139.21497,-17.5819 l 83.52898,-3.29304 -0.0386,31.98818 c -0.0493,40.82251 -15.62448,145.6676 -33.22036,223.62426 -11.5934,51.36332 -15.84698,61.04948 -27.88072,63.48933 -7.81009,1.58349 -53.36877,10.43971 -101.24151,19.68047 -88.76126,17.13337 -205.89983,51.85838 -269.18146,79.79719 -19.3652,8.54972 -37.71502,15.54496 -40.77736,15.54496 -3.06234,0 -25.5432,-17.36185 -49.9574,-38.58188 z"
       id="path3" /><path
       style="display:inline;fill:#c10966;stroke:none;stroke-width:2.37921"
       d="M 55.571889,45.343933 C 89.111932,3.3078449 93.642739,4.2285492 85.459149,51.417317 80.40582,80.55616 80.019417,80.921786 52.148105,82.937246 L 23.949697,84.976359 Z M -152.79298,67.396751 C -239.80589,51.647368 -317.01912,33.075254 -323.83947,26.2549 c -19.25052,-19.2505222 63.50056,-339.67368 92.32301,-357.48693 16.44115,-10.16119 182.381365,26.47992 254.335059,56.1595 52.802464,21.78004 58.347501,30.16171 65.593821,99.14909 3.980063,37.89152 3.895563,38.12568 -33.76518,93.568382 C 11.714803,-19.15157 -78.229409,77.984661 -92.966465,77.061969 -98.371281,76.723572 -125.29321,72.374224 -152.79298,67.396751 Z M -18.528402,-387.45116 c -7.702413,-3.10895 -46.764496,-12.17975 -86.804628,-20.15732 -40.04013,-7.97757 -72.80024,-17.13444 -72.80024,-20.34859 0,-7.62443 58.13887,-95.85757 66.61427,-101.09566 8.81339,-5.44698 39.262557,24.55094 77.164094,76.02053 51.865148,70.43192 54.457463,81.17381 15.826504,65.58104 z m -447.861738,-46.53589 c 0,-3.938 5.65763,-35.62988 12.57252,-70.42639 6.91488,-34.79651 16.2239,-95.26072 20.68671,-134.36492 l 8.1142,-71.09855 25.2131,4.03174 c 51.58574,8.24889 204.416,79.51523 218.13984,101.72088 2.0192,3.26714 -14.78591,33.73554 -37.34469,67.70757 -22.55878,33.97202 -47.67625,72.52735 -55.8166,85.6785 l -14.80064,23.91119 h -88.38222 c -59.56327,0 -88.38222,-2.33468 -88.38222,-7.16002 z"
       id="path2" /></g><path
     style="display:inline;fill:#000000"
     d="m -1868.5443,-2366.8683 c -91.0498,-19.4 -213.754,-77.3742 -271.9206,-128.4747 l -21.1187,-18.5532 58.4013,-54.2536 58.4014,-54.2536 41.3329,6.7073 c 92.6918,15.0414 271.8305,7.0585 383.9931,-17.1118 26.3187,-5.6715 48.8382,-9.2433 50.0435,-7.9373 1.2052,1.306 8.752,40.5026 16.7706,87.1035 8.0186,46.601 19.7992,103.5537 26.1791,126.5617 l 11.5998,41.8326 -15.1492,5.7597 c -71.6212,27.2303 -240.4273,33.5228 -338.5332,12.6194 z m 408.4591,-102.3558 c -14.6647,-62.5274 -36.3659,-191.9194 -32.634,-194.5773 1.2634,-0.8998 25.6858,-11.2788 54.2719,-23.0644 62.9211,-25.9413 124.3299,-60.2137 178.4471,-99.5919 l 40.3545,-29.3639 64.4263,5.8413 c 35.4344,3.2127 65.2531,6.6236 66.2637,7.5799 3.9808,3.7667 -35.5614,87.9231 -61.7468,131.4133 -52.8708,87.8114 -142.6978,176.5457 -227.769,224.9987 -72.0494,41.0362 -66.1458,42.7169 -81.6137,-23.2357 z m -797.9677,-144.5793 c -30.7483,-40.9815 -67.6589,-99.772 -67.6589,-107.7659 0,-1.8876 25.7956,9.3074 57.3238,24.8778 31.528,15.5703 74.25,33.5881 94.9377,40.0396 20.6876,6.4514 37.6391,13.7052 37.6699,16.1194 0.088,6.9116 -73.796,70.9504 -81.8585,70.9504 -3.9792,0 -22.1655,-19.8996 -40.414,-44.2213 z m 277.1988,-59.7367 -18.7391,-4.1384 13.9352,-12.5793 c 31.5888,-28.5153 129.8482,-169.6003 188.8714,-271.1895 3.889,-6.6937 21.5924,-1.9424 79.3938,21.3083 40.9137,16.4576 90.2941,34.5467 109.7341,40.1981 l 35.3455,10.2752 v 93.6323 93.6324 l -54.0482,10.4375 c -29.7265,5.7407 -77.1091,13.5143 -105.2947,17.2748 -54.6303,7.2886 -217.9858,8.0416 -249.198,1.1486 z m -165.5684,-36.2413 c -63.2084,-20.4767 -134.7867,-56.8161 -183.958,-93.3931 -40.1692,-29.8806 -40.8268,-30.8844 -50.3512,-76.8645 -5.3077,-25.6237 -11.3199,-61.0463 -13.3604,-78.7168 -3.6905,-31.9592 -3.529,-32.297 30.6974,-64.2376 62.4865,-58.3134 215.0825,-154.0079 230.0818,-144.2867 4.0785,2.6433 36.8963,24.3684 72.9284,48.278 36.0321,23.9097 93.5197,58.853 127.7502,77.6518 34.2305,18.7989 64.5035,36.29 67.2733,38.8692 6.1068,5.6867 -55.7314,109.7495 -105.4171,177.3986 -53.5041,72.8478 -106.1622,131.0649 -118.2495,130.7327 -5.8656,-0.1612 -31.6933,-7.1054 -57.3949,-15.4316 z m 646.1735,-86.5841 c 0,-68.6945 0.1818,-69.5134 14.7404,-66.4009 8.1072,1.7333 47.1693,9.7772 86.8046,17.8753 98.2907,20.0823 94.2241,17.9466 68.0448,35.7359 -33.7832,22.9563 -154.3074,82.342 -167.1142,82.342 -1.3616,0 -2.4756,-31.2985 -2.4756,-69.5523 z m 348.7862,-73.4686 c -6.1237,-3.8874 -3.8649,-9.3668 8.7357,-21.1913 9.3472,-8.7716 33.408,-37.3687 53.4683,-63.5492 20.0604,-26.1805 37.3125,-46.7618 38.338,-45.7363 2.1995,2.1995 -8.5406,91.8688 -14.1219,117.9045 -3.6652,17.0976 -5.7561,18.011 -41.0115,17.9158 -20.4321,-0.055 -40.866,-2.4597 -45.4086,-5.3435 z m -165.2616,-17.7134 c -26.9755,-4.8796 -77.8299,-15.3982 -113.0098,-23.3746 -74.1133,-16.8039 -70.3329,-9.3164 -54.2378,-107.4236 19.4165,-118.3528 74.9731,-285.0203 94.9823,-284.9426 70.4172,0.2736 268.2072,54.0457 299.0948,81.3132 11.1694,9.8604 18.333,27.81 25.8426,64.7526 l 10.3896,51.1107 -28.3922,43.7488 c -58.7828,90.5769 -146.3936,185.2285 -170.5708,184.2789 -8.2788,-0.3252 -37.1232,-4.5837 -64.0987,-9.4634 z m -278.5183,-69.8536 c -47.8319,-16.5727 -157.6799,-59.7529 -162.1221,-63.7286 -2.69,-2.4076 9.3685,-38.1431 26.7967,-79.4122 17.4282,-41.2692 41.1028,-103.3494 52.6103,-137.956 l 20.9227,-62.9213 53.8257,-4.1902 c 74.4481,-5.7957 122.6143,-5.3013 122.6143,1.2585 0,3.04 -11.6261,39.154 -25.8358,80.2533 -24.8073,71.7515 -59.331,221.4976 -59.331,257.3476 0,18.894 -1.0086,19.2138 -29.4808,9.3489 z m -317.1091,-139.8167 c -113.6435,-64.6049 -168.1419,-101.9907 -157.238,-107.865 45.9567,-24.7581 285.5883,-88.0471 317.5392,-83.8652 l 15.2756,1.9993 -31.4639,81.8912 c -35.152,91.4906 -61.1919,150.7512 -66.126,150.4873 -1.8016,-0.096 -36.8957,-19.2878 -77.9869,-42.6476 z m -478.7311,-10.6414 c 0.4158,-25.6796 27.9581,-128.8656 45.901,-171.9665 l 20.6202,-49.5318 58.2448,53.7148 58.2449,53.7147 -21.15,12.6263 c -35.8166,21.382 -104.8841,67.3648 -134.1597,89.3187 -17.0146,12.7594 -27.7879,17.4745 -27.7012,12.1238 z m 196.0153,-184.6244 c -26.8142,-23.1027 -59.8893,-53.6261 -73.5002,-67.8299 l -24.7471,-25.8252 24.0544,-32.2961 c 77.2592,-103.7307 183.9612,-185.8026 300.5941,-231.2081 76.5968,-29.8194 127.4157,-40.084 221.1061,-44.6601 l 83.529,-4.0798 v 20.3075 c 0,34.4351 -19.1531,164.818 -34.8182,237.0209 l -14.8916,68.6383 -29.1933,5.3621 c -181.9044,33.4114 -264.7438,57.1493 -396.4472,113.6034 -3.8131,1.6345 -28.8718,-15.9304 -55.686,-39.033 z m 1055.9454,-31.3575 c -27.0311,-10.2142 -140.2904,-37.3154 -174.415,-41.7347 -18.016,-2.3332 -36.4481,-5.4061 -40.9601,-6.8287 -8.8973,-2.8053 36.7317,-81.79 70.2374,-121.5822 l 18.7409,-22.2572 23.9831,22.9295 c 39.1469,37.4271 128.4506,165.8293 120.42,173.1416 -1.3386,1.2188 -9.4414,-0.4319 -18.0063,-3.6683 z m -498.7039,-52.8188 c 0,-1.4688 5.6406,-28.4828 12.5348,-60.0311 6.8942,-31.5482 17.8403,-99.9418 24.3246,-151.9856 6.4843,-52.0439 14.4122,-94.6253 17.6174,-94.6253 3.2053,0 32.5607,8.9564 65.2342,19.903 63.093,21.1381 146.76,62.0535 176.9318,86.5244 l 18.2129,14.7716 -29.5693,39.3077 c -16.2631,21.6193 -42.1474,62.069 -57.5206,89.8882 l -27.9514,50.5805 -89.5445,0.1921 c -49.2494,0.1056 -94.2077,1.9814 -99.9072,4.1686 -5.6995,2.1871 -10.3627,2.7747 -10.3627,1.3059 z"
     id="path1" /></svg>
